<svg xmlns="http://www.w3.org/2000/svg" xmlns:xlink="http://www.w3.org/1999/xlink" width="500" zoomAndPan="magnify" viewBox="0 0 375 374.999991" height="500" preserveAspectRatio="xMidYMid meet" version="1.0"><defs><g/></defs><rect x="-37.5" width="450" fill="#ffffff" y="-37.499999" height="449.999989" fill-opacity="1"/><rect x="-37.5" width="450" fill="#ffffff" y="-37.499999" height="449.999989" fill-opacity="1"/><g fill="#000000" fill-opacity="1"><g transform="translate(38.882814, 144.514115)"><g><path d="M 93.578125 -40.703125 C 92.128906 -33.171875 82.855469 -24.046875 64.75 -24.046875 C 45.050781 -24.046875 34.765625 -34.332031 34.765625 -50.699219 L 34.765625 -55.042969 C 34.765625 -71.414062 45.339844 -81.84375 64.894531 -81.84375 C 82.710938 -81.84375 89.808594 -74.746094 91.113281 -68.660156 L 124.429688 -68.660156 C 122.402344 -89.085938 103.859375 -107.917969 65.910156 -107.917969 C 25.640625 -107.917969 4.054688 -86.476562 4.054688 -55.625 L 4.054688 -49.25 C 4.054688 -18.832031 25.058594 2.171875 56.929688 2.171875 C 79.671875 2.171875 95.460938 -9.269531 100.382812 -27.957031 L 110.523438 0 L 124.429688 0 L 124.429688 -61.5625 L 63.011719 -61.5625 L 63.011719 -40.703125 Z M 93.578125 -40.703125 "/></g></g></g><g fill="#000000" fill-opacity="1"><g transform="translate(169.387028, 144.514115)"><g/></g></g><g fill="#000000" fill-opacity="1"><g transform="translate(219.792653, 144.514115)"><g><path d="M 73.875 -105.746094 L 42.007812 -105.746094 L -1.304688 0 L 29.839844 0 L 37.082031 -18.6875 L 79.089844 -18.6875 L 86.1875 0 L 117.621094 0 Z M 69.964844 -41.863281 L 46.0625 -41.863281 L 57.941406 -73.007812 Z M 69.964844 -41.863281 "/></g></g></g><g fill="#000000" fill-opacity="1"><g transform="translate(49.312501, 347.014102)"><g><path d="M 36.214844 -25.929688 C 36.648438 -31.289062 40.125 -33.75 62.867188 -38.675781 C 95.316406 -45.773438 106.757812 -57.363281 106.757812 -74.3125 C 106.757812 -92.5625 91.257812 -107.917969 57.21875 -107.917969 C 22.886719 -107.917969 6.808594 -92.128906 5.359375 -69.820312 L 36.9375 -69.820312 C 38.097656 -76.917969 43.3125 -81.988281 57.21875 -81.988281 C 71.703125 -81.988281 76.050781 -77.351562 76.050781 -72.863281 C 76.050781 -68.082031 72.574219 -64.027344 46.207031 -58.667969 C 15.644531 -52.4375 3.765625 -40.992188 3.765625 -16.078125 L 3.765625 0 L 109.65625 0 L 109.65625 -25.929688 Z M 36.214844 -25.929688 "/></g></g></g><g fill="#000000" fill-opacity="1"><g transform="translate(161.421564, 347.014102)"><g/></g></g><g fill="#000000" fill-opacity="1"><g transform="translate(211.827189, 347.014102)"><g><path d="M 93.578125 -44.761719 L 93.578125 -105.746094 L 58.519531 -105.746094 L 0.289062 -41.574219 L 0.289062 -20.714844 L 64.027344 -20.714844 L 64.027344 0 L 93.578125 0 L 93.578125 -20.714844 L 112.84375 -20.714844 L 112.84375 -44.761719 Z M 64.027344 -78.222656 L 64.027344 -44.761719 L 33.316406 -44.761719 Z M 64.027344 -78.222656 "/></g></g></g></svg>